<?xml version="1.0" encoding="utf-8"?>
<!DOCTYPE svg PUBLIC "-//W3C//DTD SVG 1.1//EN" "http://www.w3.org/Graphics/SVG/1.1/DTD/svg11.dtd">
<svg xmlns="http://www.w3.org/2000/svg" xmlns:xlink="http://www.w3.org/1999/xlink" version="1.1"  width="24" height="24" viewBox="0 0 24 24">
<path fill="#A2AAAE" d="M9.5,3C13.1,3,16,5.9,16,9.5c0,1.6-0.6,3.1-1.6,4.2l0.3,0.3h0.8l5,5L19,20.5l-5-5v-0.8l-0.3-0.3c-1.1,1-2.6,1.6-4.2,1.6
	C5.9,16,3,13.1,3,9.5S5.9,3,9.5,3 M9.5,5C7,5,7.1,8.5,5,9.5c-2.3,1,2-5.2,4.5-5.2s6.7,6.4,4.5,5.2C11.4,8.1,12,5,9.5,5z"/>
</svg>
